Coordinates
version=1
nRows=17
nColumns=24
inDegrees=yes

Units are S.I. units (second, meters, Newtons, ...)
Angles are in degrees.

endheader
time	pelvis_tilt	pelvis_list	pelvis_rotation	pelvis_tx	pelvis_ty	pelvis_tz	hip_flexion_r	hip_adduction_r	hip_rotation_r	knee_angle_r	ankle_angle_r	subtalar_angle_r	mtp_angle_r	hip_flexion_l	hip_adduction_l	hip_rotation_l	knee_angle_l	ankle_angle_l	subtalar_angle_l	mtp_angle_l	lumbar_extension	lumbar_bending	lumbar_rotation
      0.43000000	     -4.83703859	      5.35479221	     -2.69301609	     -0.80262545	      1.02269096	      0.25324693	     33.78430713	     -2.09376418	     -0.07159195	    -11.22412804	      5.26245065	     -1.58538667	      8.72654068	    -11.38794386	      7.66062662	     -0.51946192	    -10.12482535	     21.72030041	     11.36819922	      3.90307872	    -10.12575394	     -5.58216410	     -3.24230325
      0.43416667	     -4.89188285	      5.25325287	     -2.60018488	     -0.79617597	      1.02191763	      0.25344542	     33.87812897	     -1.96237963	      0.10823099	    -11.93243767	      4.89794994	     -2.08709128	      8.71144823	    -11.36316000	      7.49587856	     -0.63806853	    -10.87210854	     21.78532321	     11.67425404	      3.98429679	    -10.01475500	     -5.34076270	     -3.23652100
      0.43833333	     -4.95039779	      5.13183769	     -2.50271695	     -0.78967284	      1.02118835	      0.25363456	     33.97736738	     -1.81934236	      0.24864030	    -12.67916233	      4.49382379	     -2.56421416	      8.69569803	    -11.32936509	      7.30559512	     -0.76140429	    -11.63368736	     21.87308237	     12.03770041	      4.09332933	     -9.88939346	     -5.06845668	     -3.23982934
      0.44250000	     -4.98826273	      5.00764427	     -2.41754819	     -0.78315583	      1.02053988	      0.25387364	     34.05691719	     -1.66921725	      0.40238498	    -13.45112476	      4.09165446	     -3.05854603	      8.67570037	    -11.28307124	      7.10151590	     -0.99608126	    -12.46773847	     21.90254513	     12.48542578	      4.26196522	     -9.78699438	     -4.80184851	     -3.24189437
      0.44666667	     -4.99441575	      4.87644464	     -2.31709796	     -0.77665980	      1.02000319	      0.25409580	     34.10672981	     -1.52828371	      0.52175586	    -14.25262700	      3.69304470	     -3.49933097	      8.64236040	    -11.23811342	      6.87893130	     -1.25178753	    -13.36225276	     21.93220343	     13.02045775	      4.57441313	     -9.75318505	     -4.53542151	     -3.22885648
      0.45083333	     -5.05252931	      4.74223224	     -2.22634638	     -0.77009224	      1.01943721	      0.25434767	     34.21142367	     -1.37603599	      0.66043305	    -15.07247626	      3.29164060	     -3.95006791	      8.60558446	    -11.13808465	      6.65608838	     -1.45862685	    -14.25659278	     21.85946727	     13.39757343	      4.83997006	     -9.61969644	     -4.24648998	     -3.23290900
      0.45500000	     -5.03948459	      4.57220544	     -2.12028965	     -0.76354457	      1.01906081	      0.25456866	     34.23649890	     -1.21415446	      0.71231235	    -15.90486207	      2.90533076	     -4.30012685	      8.51234490	    -11.06734104	      6.37613378	     -1.76273569	    -15.24649363	     21.81841851	     13.96779389	      5.54745940	     -9.60361115	     -3.91525407	     -3.19526712
      0.45916667	     -5.07461835	      4.44616330	     -2.02117819	     -0.75698538	      1.01864882	      0.25485169	     34.33103168	     -1.08143870	      0.82123592	    -16.77752564	      2.52438021	     -4.75259922	      8.42926039	    -10.93704571	      6.14300714	     -2.00012553	    -16.23480776	     21.64446632	     14.43393233	      6.05783052	     -9.50820589	     -3.65715372	     -3.21800568
      0.46333333	     -5.10625305	      4.30820902	     -1.92739629	     -0.75041185	      1.01829327	      0.25514325	     34.41978595	     -0.94135397	      0.90990598	    -17.65806586	      2.22471782	     -5.08325275	      8.35400761	    -10.77612961	      5.89030637	     -2.27718579	    -17.28878087	     21.43473250	     14.86193273	      6.47686648	     -9.41523112	     -3.37550433	     -3.21227585
      0.46750000	     -5.10604254	      4.15549617	     -1.81913303	     -0.74383577	      1.01807010	      0.25542739	     34.46795804	     -0.80346627	      0.94654318	    -18.53803482	      1.94275601	     -5.39809214	      8.24994151	    -10.62079103	      5.60708915	     -2.56801942	    -18.39493558	     21.16681890	     15.38278172	      7.02388834	     -9.37458016	     -3.08194456	     -3.20285220
      0.47166667	     -5.09873409	      3.99793072	     -1.72548890	     -0.73724040	      1.01791099	      0.25571908	     34.51631705	     -0.66154182	      0.94526849	    -19.44180138	      1.70331539	     -5.63989591	      7.43704308	    -10.46253967	      5.32556220	     -2.81116749	    -19.50150614	     20.75993764	     15.70868148	     11.20679057	     -9.32954913	     -2.77640198	     -3.10562928
      0.47583333	     -5.09475896	      3.84649875	     -1.62358151	     -0.73065337	      1.01778404	      0.25602884	     34.56678507	     -0.53380524	      0.92432966	    -20.34791165	      1.54066687	     -5.82156694	      7.41962708	    -10.25432937	      5.03142827	     -3.10868860	    -20.70178565	     20.40768714	     16.16866024	     11.28530037	     -9.27748036	     -2.46988793	     -3.18051615
      0.48000000	     -5.06075111	      3.68074594	     -1.52891564	     -0.72407662	      1.01776649	      0.25637821	     34.57094287	     -0.39090721	      0.89644989	    -21.22920965	      1.41387441	     -6.00432025	      7.38402393	    -10.04344129	      4.70658594	     -3.45550989	    -21.96147090	     19.97222993	     16.67760819	     11.44125289	     -9.27426879	     -2.16303398	     -3.15905842
      0.48416667	     -5.01926173	      3.51706587	     -1.43581700	     -0.71751530	      1.01780877	      0.25674669	     34.56034168	     -0.25342251	      0.84581536	    -22.09875924	      1.34521586	     -6.13766750	      7.33683757	     -9.80692096	      4.37540818	     -3.79335808	    -23.27376959	     19.47274397	     17.15377998	     11.64988077	     -9.27667320	     -1.86053380	     -3.14160463
      0.48833333	     -4.95835171	      3.34759383	     -1.34919766	     -0.71096433	      1.01793085	      0.25714408	     34.51605236	     -0.11066336	      0.77751478	    -22.94417780	      1.32952710	     -6.24478360	      7.27515850	     -9.56093560	      4.02627571	     -4.14752331	    -24.63045790	     18.90079298	     17.62947697	     11.92833879	     -9.30703297	     -1.55419673	     -3.12106151
      0.49250000	     -4.90319042	      3.17239846	     -1.26395733	     -0.70442609	      1.01809298	      0.25755481	     34.46047232	      0.03594934	      0.68927593	    -23.75676962	      1.36238963	     -6.31026565	      7.20625254	     -9.27405207	      3.66067362	     -4.50268146	    -26.04320611	     18.26271047	     18.07575262	     12.24207175	     -9.32827193	     -1.24507976	     -3.09197351
      0.49666667	     -4.82341268	      3.00358538	     -1.18364364	     -0.69792807	      1.01834668	      0.25800015	     34.36155666	      0.18047972	      0.60502254	    -24.53384633	      1.43402707	     -6.41114090	      6.15666573	     -8.98947199	      3.29601708	     -4.82614140	    -27.46650742	     17.42952768	     18.41271478	     16.92091162	     -9.38610456	     -0.94786697	     -3.03142917
